<svg width="24" height="24" viewBox="0 0 24 24" fill="#333333" xmlns="http://www.w3.org/2000/svg"><path d="M5.5 9L0 18.2C0 21.5 2.4 24 5.5 24C8.6 24 11 21.5 11 18.2L5.5 9ZM9.1 18.2H1.9L5.5 12.1L9.1 18.2Z" fill="#333333"></path><path d="M18.5686 1.44949L14.6029 2.49048C13.886 1.33464 12.5935 0.743419 11.2394 1.09888C9.88525 1.45434 9.04981 2.60414 8.99299 3.9631L5.02734 5.00409L5.43358 6.55165L9.39923 5.51066C10.1162 6.6665 11.4087 7.25772 12.7628 6.90226C14.1169 6.5468 14.9523 5.397 15.0092 4.03805L18.9748 2.99706L18.5686 1.44949ZM12.3565 5.35469C11.5828 5.55781 10.8501 5.12981 10.647 4.35603C10.4438 3.58225 10.8718 2.84957 11.6456 2.64645C12.4194 2.44333 13.1521 2.87133 13.3552 3.64511C13.5583 4.4189 13.1303 5.15157 12.3565 5.35469Z" fill="#333333"></path><path d="M18.5 6L13 15.2C13 18.4 15.4 21 18.5 21C21.6 21 24 18.5 24 15.2L18.5 6ZM22.1 15.2H14.9L18.5 9.1L22.1 15.2Z" fill="#333333"></path></svg>